# xmcd CD database file
#
# Track frame offsets:
#	150
#	27895
#	60670
#	85900
#	109192
#	135425
#	185435
#	217800
#
# Disc length: 3334 seconds
#
# Revision: 1
# Processed by: cddbd v1.5.2PL0 Copyright (c) Steve Scherf et al.
# Submitted via: CDex 1.51
#
DISCID=630d0408
DTITLE=Joe Turner - Live! (featuring Mike Bloomfield)
DYEAR=1988
DGENRE=Blues
TTITLE0=Flip Flop And Fly
TTITLE1=Chains Of Love
TTITLE2=Corrine, Corrina
TTITLE3=T.V. Mama
TTITLE4=Honey Hush
TTITLE5=Give Me An Hour In Your Garden
TTITLE6=The Night Time Is The Right Time
TTITLE7=Shoo Shoo Boogie Boo
EXTD=YEAR: 1988
EXTT0=
EXTT1=
EXTT2=
EXTT3=
EXTT4=
EXTT5=
EXTT6=
EXTT7=
PLAYORDER=
